<?xml version="1.0" encoding="iso-8859-1"?>
<!-- Generator: Adobe Illustrator 19.0.0, SVG Export Plug-In . SVG Version: 6.00 Build 0)  -->
<svg xmlns="http://www.w3.org/2000/svg" xmlns:xlink="http://www.w3.org/1999/xlink" version="1.1" id="Capa_1" x="0px" y="0px" viewBox="0 0 480 480" style="enable-background:new 0 0 480 480;" xml:space="preserve" width="512px" height="512px">
<g>
	<g>
		<path d="M479.304,308.856l-23.44-80.952c-1.833-6.969-8.099-11.852-15.304-11.928H352c-9.061,0.249-16.215,7.778-16,16.84v95.16    h-64.208c3.637-4.71,6.166-10.179,7.4-16H312c4.418,0,8-3.582,8-8v-56c-0.001-3.749-2.604-6.995-6.264-7.808L244,224.672    l-46.352-46.352c-1.498-1.498-3.529-2.341-5.648-2.344H56c-2.122,0-4.156,0.844-5.656,2.344l-48,48    c-1.5,1.5-2.344,3.534-2.344,5.656v64c0,3.669,2.497,6.868,6.056,7.76l26.592,6.648c1.04,6.395,3.636,12.436,7.56,17.592H16    c-4.418,0-8,3.582-8,8v56c0,4.418,3.582,8,8,8h40.8c4.396,21.65,25.51,35.636,47.16,31.24c15.741-3.196,28.044-15.499,31.24-31.24    h17.6c4.396,21.65,25.51,35.636,47.16,31.24c15.741-3.196,28.044-15.499,31.24-31.24h137.6c4.396,21.65,25.51,35.636,47.16,31.24    c15.741-3.196,28.044-15.499,31.24-31.24H472c4.418,0,8-3.582,8-8v-78.2C479.999,312.112,479.765,310.455,479.304,308.856z     M304,295.976h-24.8c-0.573-2.751-1.439-5.433-2.584-8H304V295.976z M240,240.168l64,14.208v17.6h-40v0.208    c-6.883-5.294-15.316-8.179-24-8.208V240.168z M264,303.976c0,13.255-10.745,24-24,24s-24-10.745-24-24s10.745-24,24-24    S264,290.721,264,303.976z M128,191.976h60.688l32,32H128V191.976z M128,239.976h96v27.392    c-11.913,5.212-20.561,15.875-23.2,28.608H128V239.976z M208.208,327.976H103.792c3.637-4.71,6.166-10.179,7.4-16H200.8    C202.037,317.798,204.569,323.267,208.208,327.976z M59.312,191.976H112v32H27.312L59.312,191.976z M33.4,294.08h-0.008    L16,289.728v-49.752h96v56h-0.8c-4.359-21.603-25.406-35.581-47.009-31.222C49.14,267.791,37.167,279.195,33.4,294.08z     M96,303.976c0,13.255-10.745,24-24,24s-24-10.745-24-24s10.745-24,24-24S96,290.721,96,303.976z M96,415.976    c-13.255,0-24-10.745-24-24s10.745-24,24-24s24,10.745,24,24S109.255,415.976,96,415.976z M192,415.976c-13.255,0-24-10.745-24-24    s10.745-24,24-24s24,10.745,24,24S205.255,415.976,192,415.976z M336,383.976H231.2c-4.396-21.65-25.51-35.636-47.16-31.24    c-15.741,3.196-28.044,15.499-31.24,31.24h-17.6c-4.396-21.65-25.51-35.636-47.16-31.24c-15.741,3.196-28.044,15.499-31.24,31.24    H24v-40h312V383.976z M449.536,263.664l9.328,32.312H384v-32h64C448.521,263.925,449.036,263.821,449.536,263.664z M408,415.976    c-13.255,0-24-10.745-24-24s10.745-24,24-24s24,10.745,24,24S421.255,415.976,408,415.976z M464,343.976h-16v-8h16V343.976z     M464,319.976h-24c-4.418,0-8,3.582-8,8v24c0,4.418,3.582,8,8,8h24v24h-16.8c-4.396-21.65-25.51-35.636-47.16-31.24    c-15.741,3.196-28.044,15.499-31.24,31.24H352v-151.16c0-0.512,0.2-0.8,0.056-0.84l88.44,0.376l4.512,15.624H376    c-4.418,0-8,3.582-8,8v48c0,4.418,3.582,8,8,8h87.48l0.52,1.8V319.976z" fill="#FFFFFF"/>
	</g>
</g>
<g>
	<g>
		<rect x="40" y="127.976" width="64" height="16" fill="#FFFFFF"/>
	</g>
</g>
<g>
	<g>
		<rect x="304" y="167.976" width="64" height="16" fill="#FFFFFF"/>
	</g>
</g>
<g>
	<g>
		<rect x="272" y="167.976" width="16" height="16" fill="#FFFFFF"/>
	</g>
</g>
<g>
	<g>
		<rect x="8" y="127.976" width="16" height="16" fill="#FFFFFF"/>
	</g>
</g>
<g>
	<g>
		<rect x="176" y="47.976" width="16" height="16" fill="#FFFFFF"/>
	</g>
</g>
<g>
	<g>
		<rect x="208" y="47.976" width="64" height="16" fill="#FFFFFF"/>
	</g>
</g>
<g>
	<g>
		<rect x="144" y="247.976" width="8" height="16" fill="#FFFFFF"/>
	</g>
</g>
<g>
</g>
<g>
</g>
<g>
</g>
<g>
</g>
<g>
</g>
<g>
</g>
<g>
</g>
<g>
</g>
<g>
</g>
<g>
</g>
<g>
</g>
<g>
</g>
<g>
</g>
<g>
</g>
<g>
</g>
</svg>
